<svg width="209" height="47" viewBox="0 0 209 47" fill="none" xmlns="http://www.w3.org/2000/svg">
<path d="M205.507 18C205.021 18 204.564 17.9091 204.137 17.7274C203.714 17.5456 203.344 17.2951 203.024 16.9758C202.705 16.6516 202.454 16.2782 202.273 15.8558C202.091 15.4333 202 14.9789 202 14.4926C202 14.0112 202.091 13.5593 202.273 13.1368C202.454 12.7144 202.705 12.3435 203.024 12.0242C203.344 11.7 203.714 11.4495 204.137 11.2726C204.564 11.0909 205.021 11 205.507 11C205.989 11 206.441 11.0909 206.863 11.2726C207.286 11.4495 207.657 11.7 207.976 12.0242C208.295 12.3435 208.546 12.7144 208.727 13.1368C208.909 13.5593 209 14.0112 209 14.4926C209 14.9789 208.909 15.4333 208.727 15.8558C208.546 16.2782 208.295 16.6516 207.976 16.9758C207.657 17.2951 207.286 17.5456 206.863 17.7274C206.441 17.9091 205.989 18 205.507 18ZM205.507 17.2632C206.013 17.2632 206.475 17.1379 206.893 16.8874C207.315 16.6368 207.649 16.3028 207.895 15.8853C208.145 15.4677 208.271 15.0035 208.271 14.4926C208.271 13.9818 208.145 13.5175 207.895 13.1C207.649 12.6825 207.315 12.3509 206.893 12.1053C206.475 11.8547 206.013 11.7295 205.507 11.7295C204.996 11.7295 204.53 11.8547 204.107 12.1053C203.69 12.3509 203.356 12.6825 203.105 13.1C202.855 13.5175 202.729 13.9818 202.729 14.4926C202.729 15.0035 202.855 15.4677 203.105 15.8853C203.356 16.3028 203.69 16.6368 204.107 16.8874C204.53 17.1379 204.996 17.2632 205.507 17.2632ZM204.306 16.1726V12.7611H205.802C206.107 12.7611 206.369 12.8691 206.591 13.0853C206.812 13.3014 206.925 13.5618 206.929 13.8663C206.929 14.0579 206.873 14.2495 206.76 14.4411C206.647 14.6277 206.49 14.7677 206.288 14.8611L206.937 16.1726H206.303L205.721 14.9642H204.859V16.1726H204.306ZM204.859 14.4411H205.795C205.942 14.4411 206.072 14.3846 206.185 14.2716C206.303 14.1586 206.362 14.0235 206.362 13.8663C206.362 13.6895 206.301 13.5495 206.178 13.4463C206.06 13.3382 205.932 13.2842 205.795 13.2842H204.859V14.4411Z" fill="white"/>
<path fill-rule="evenodd" clip-rule="evenodd" d="M200 30.058C200 31.8468 199.345 33.2829 198.035 34.3411C196.725 35.4245 195.087 35.9536 193.071 35.9536C191.736 35.9536 190.35 35.7017 188.889 35.223C187.428 34.7443 186.143 34.0388 184.984 33.0814L187.201 29.932C189.065 31.3933 191.081 32.124 193.197 32.124C193.852 32.124 194.356 31.998 194.734 31.746C195.112 31.4941 195.314 31.1413 195.314 30.713C195.314 30.2847 195.062 29.9068 194.533 29.5288C194.004 29.1761 193.248 28.8234 192.265 28.521C191.282 28.2187 190.527 27.9415 189.997 27.7148C189.468 27.488 188.889 27.1605 188.209 26.7322C186.848 25.8755 186.168 24.6158 186.168 22.9529C186.168 21.29 186.848 19.9295 188.183 18.8713C189.519 17.8131 191.257 17.284 193.374 17.284C195.49 17.284 197.606 18.0146 199.723 19.4255L197.858 22.8017C196.296 21.7183 194.734 21.1892 193.197 21.1892C191.635 21.1892 190.879 21.6175 190.879 22.4742C190.879 22.9529 191.131 23.3056 191.61 23.5828C192.089 23.8599 192.92 24.1623 194.054 24.515C195.188 24.8677 195.994 25.1449 196.473 25.3464C196.951 25.548 197.531 25.8251 198.186 26.2283C199.37 27.0093 200 28.2691 200 30.058Z" fill="white"/>
<path fill-rule="evenodd" clip-rule="evenodd" d="M173.621 35.7017H168.607V10.8844H173.621V23.5576L179.189 17.5611H185.513L178.66 24.8929L185.79 35.7017H179.844L175.258 28.773L173.621 30.4863V35.7017Z" fill="white"/>
<path fill-rule="evenodd" clip-rule="evenodd" d="M153.918 25.5984V35.7017H148.904V17.8634H153.918V19.6019C155.43 18.065 157.143 17.284 159.032 17.284C160.922 17.284 162.509 17.9642 163.794 19.2996C165.079 20.6349 165.709 22.449 165.709 24.6914V35.7017H160.695V25.4724C160.695 22.7009 159.688 21.29 157.647 21.29C156.639 21.29 155.757 21.6427 155.026 22.3734C154.296 23.1041 153.918 24.1875 153.918 25.5984Z" fill="white"/>
<path fill-rule="evenodd" clip-rule="evenodd" d="M132.703 35.7017H137.717V10.8844H132.703V35.7017Z" fill="white"/>
<path fill-rule="evenodd" clip-rule="evenodd" d="M140.816 35.7017H145.83V17.8634H140.816V35.7017ZM141.219 15.8982C140.64 15.3187 140.363 14.6133 140.363 13.807C140.363 12.9756 140.64 12.2701 141.219 11.7158C141.799 11.1363 142.479 10.8592 143.311 10.8592C144.142 10.8592 144.822 11.1363 145.402 11.7158C145.981 12.2953 146.258 13.0008 146.258 13.807C146.258 14.6385 145.981 15.3439 145.402 15.8982C144.822 16.4777 144.142 16.7549 143.311 16.7549C142.479 16.7549 141.799 16.4777 141.219 15.8982Z" fill="white"/>
<path fill-rule="evenodd" clip-rule="evenodd" d="M126.002 10.8844H130.763L119.753 35.6513H115.042L126.002 10.8844Z" fill="white"/>
<path fill-rule="evenodd" clip-rule="evenodd" d="M101.31 26.6314C101.31 28.1179 101.738 29.3273 102.57 30.2595C103.401 31.1917 104.485 31.6453 105.77 31.6453C107.08 31.6453 108.138 31.1917 108.97 30.2595C109.801 29.3273 110.229 28.1179 110.229 26.6314C110.229 25.1449 109.801 23.9355 108.97 23.0033C108.138 22.0711 107.055 21.5923 105.77 21.5923C104.46 21.5923 103.401 22.0711 102.57 23.0033C101.738 23.9607 101.31 25.1701 101.31 26.6314ZM115.294 26.6314C115.294 29.2517 114.386 31.4689 112.572 33.2577C110.758 35.0466 108.491 35.9536 105.77 35.9536C103.049 35.9536 100.781 35.0466 98.967 33.2577C97.1529 31.4689 96.2459 29.2517 96.2459 26.6314C96.2459 24.0111 97.1529 21.7939 98.967 19.9798C100.781 18.1658 103.049 17.284 105.77 17.284C108.491 17.284 110.758 18.191 112.572 19.9798C114.386 21.7939 115.294 24.0111 115.294 26.6314Z" fill="white"/>
<path fill-rule="evenodd" clip-rule="evenodd" d="M89.1912 17.1832V17.9214C87.866 17.2487 86.3719 16.906 84.7065 16.906C81.9854 16.906 79.7178 17.7879 77.9038 19.6019C76.0897 21.416 75.1827 23.6332 75.1827 26.2535C75.1827 28.8738 76.0897 31.091 77.9038 32.8798C79.7178 34.6687 81.9854 35.5757 84.7065 35.5757C86.6843 35.5757 88.4228 35.0945 89.9219 34.1446C89.743 35.5606 89.2265 36.6238 88.385 37.3646C87.3268 38.2968 85.8655 38.7503 84.0262 38.7503C82.187 38.7503 80.4233 38.1204 78.7856 36.8607L76.8456 40.6652C77.8786 41.4714 79.1131 42.1013 80.4989 42.5296C81.9098 42.9579 83.2704 43.1847 84.6057 43.1847C87.1252 43.1847 89.3172 42.454 91.1565 40.9675C92.0887 40.262 92.8446 39.2794 93.3989 38.0196C93.9532 36.7599 94.2303 35.3238 94.2303 33.7113V17.1832H89.1912ZM87.9063 29.8816C87.0748 30.8138 86.0166 31.2673 84.7065 31.2673C83.4215 31.2673 82.3381 30.8138 81.5067 29.8816C80.6752 28.9494 80.2469 27.74 80.2469 26.2535C80.2469 24.7921 80.6501 23.5576 81.5067 22.6253C82.3381 21.6931 83.3963 21.2144 84.7065 21.2144C85.9915 21.2144 87.0748 21.6931 87.9063 22.6253C88.7377 23.5576 89.166 24.7669 89.166 26.2535C89.166 27.74 88.7377 28.9494 87.9063 29.8816Z" fill="white"/>
<path fill-rule="evenodd" clip-rule="evenodd" d="M42.8572 46.5356C41.4714 46.5356 40.0857 46.0317 39.0275 44.9735L34.7191 40.6903L37.3898 37.9945L41.6982 42.2776C42.3281 42.9075 43.3611 42.9075 43.9657 42.2776L61.678 24.3638C61.9804 24.0615 62.1315 23.6583 62.1315 23.23C62.1315 22.8017 61.9552 22.3986 61.6528 22.0962L43.7642 4.33359C43.1595 3.7289 42.1013 3.7289 41.4966 4.33359L23.8095 22.2222C23.5072 22.5246 23.356 22.9277 23.356 23.356C23.356 23.7843 23.5324 24.1875 23.8347 24.4898L31.3933 31.998L28.7226 34.6939L21.164 27.1857C20.131 26.1779 19.5767 24.8173 19.5767 23.356C19.5767 21.8947 20.131 20.5341 21.1388 19.5263L38.8511 1.6125C39.8589 0.579491 41.2195 0.0251953 42.6556 0C44.0917 0 45.4523 0.554296 46.4853 1.56211L64.3739 19.3248C65.4069 20.3326 65.9612 21.6931 65.9612 23.1544C65.9612 24.6158 65.4069 25.9763 64.3991 26.9841L46.6868 44.898C45.6286 46.0065 44.2429 46.5356 42.8572 46.5356Z" fill="white"/>
<path fill-rule="evenodd" clip-rule="evenodd" d="M23.3308 46.6364C21.8947 46.6364 20.5341 46.0821 19.5011 45.0743L1.6125 27.3117C0.579491 26.3039 0.0251953 24.9433 0 23.482C0 22.0459 0.554296 20.6601 1.56211 19.6523L19.2996 1.71328C20.3074 0.680275 21.6679 0.12598 23.1041 0.100784C24.5402 0.100784 25.9007 0.65508 26.9337 1.66289L29.9824 4.68632C30.713 5.41699 30.7382 6.62636 30.0076 7.38222C29.2769 8.13807 28.0927 8.13807 27.3369 7.40741L27.3117 7.38222L24.263 4.38398C23.6332 3.7541 22.6002 3.7541 21.9955 4.38398L4.258 22.323C3.95566 22.6254 3.77929 23.0285 3.80448 23.4568C3.80448 23.8851 3.98085 24.2882 4.28319 24.5906L22.1718 42.3532C22.8017 42.9831 23.8095 42.9831 24.4394 42.3532L42.1517 24.4394C42.454 24.1371 42.6304 23.7339 42.6052 23.3056C42.6052 22.8773 42.4288 22.4742 42.1265 22.1718L36.9614 17.032L34.2152 19.8035C33.4845 20.5593 32.2751 20.5593 31.5193 19.8035C30.7634 19.0728 30.7634 17.8634 31.5193 17.1076L35.5505 13.026C36.3064 12.2701 37.5661 12.2449 38.322 13.0008L44.7972 19.4256C45.8302 20.4334 46.3845 21.7939 46.4097 23.2552C46.4097 24.6914 45.8554 26.0771 44.8476 27.0849L27.1353 44.9987C26.1275 46.0569 24.7669 46.6364 23.3308 46.6364Z" fill="white"/>
</svg>
